<svg width="83" height="108" viewBox="0 0 83 108" fill="none" xmlns="http://www.w3.org/2000/svg">
<path d="M35.528 69.3988L43.1781 66.3094L49.0204 51.0479L56.8087 55.0606C56.8087 55.0606 56.0579 56.5665 54.4484 60.2988C53.8228 61.7357 51.7646 65.7528 50.9275 67.7074C50.1529 69.5145 48.8769 71.062 47.2505 72.1669C45.6241 73.2718 43.7154 73.8879 41.7499 73.9423L34.5701 74.1278L35.528 69.3988Z" fill="#FFBF9D"/>
<path d="M31.7268 66.4475L30.5877 65.2307C30.3664 65.0856 30.1058 65.0118 29.8412 65.0193L26.1823 65.1315C25.8407 65.1645 25.5109 65.2739 25.2174 65.4517C24.9238 65.6294 24.674 65.871 24.4866 66.1584L23.1533 68.4237C23.1533 68.4237 22.2601 69.9727 22.3723 70.3524C22.4222 70.5101 22.5288 70.6436 22.6715 70.7273C22.8141 70.811 22.9827 70.8388 23.1446 70.8055C23.1446 70.8055 23.2741 71.5218 23.5114 71.6685C23.6488 71.7376 23.7987 71.7782 23.9523 71.7879C24.1058 71.7975 24.2596 71.776 24.4046 71.7246C24.4675 71.8605 24.5699 71.9743 24.6984 72.0512C24.8269 72.1282 24.9756 72.1647 25.1252 72.156C25.1893 72.1501 25.2528 72.1385 25.315 72.1215C25.7465 71.9878 25.945 71.1464 25.945 71.1464L27.8003 70.8055C27.8003 70.8055 30.4669 72.5875 31.4075 73.7525C32.3482 74.9175 34.8076 74.0287 34.8076 74.0287L35.7267 69.6275L31.7268 66.4475Z" fill="#FFBF9D"/>
<path d="M29.03 66.9696C28.7698 67.0502 28.4998 67.0952 28.2275 67.1034C27.7226 67.1594 27.0107 67.181 26.2038 67.2846L26.2901 67.2199C26.1514 67.5178 25.9929 67.8061 25.8155 68.0828C25.3282 68.8558 24.7357 69.5572 24.055 70.1669C23.7876 70.4355 23.477 70.6572 23.136 70.8227C23.136 70.7925 23.4596 70.5336 23.9429 70.0461C24.5774 69.4153 25.1403 68.7164 25.6213 67.962C25.7982 67.6729 25.9579 67.3881 26.0916 67.099L26.1175 67.043H26.1779C27.0021 66.9523 27.714 66.961 28.2188 66.9437C28.4894 66.9242 28.7613 66.9329 29.03 66.9696Z" fill="#FF9A6C"/>
<path d="M29.112 68.7171C28.896 68.8225 28.6614 68.8841 28.4216 68.8983C27.8256 68.9808 27.22 68.9603 26.6309 68.8379L26.7647 68.7646C26.6871 68.9906 26.5978 69.2124 26.4972 69.4291C26.1635 70.1175 25.6956 70.7322 25.1207 71.237C24.8964 71.4594 24.6292 71.6341 24.3354 71.7504C24.5484 71.5272 24.7731 71.3155 25.0086 71.1162C25.5405 70.5987 25.9785 69.9929 26.303 69.3255C26.4028 69.1193 26.4907 68.9075 26.5662 68.6912L26.6007 68.5963H26.6957C27.492 68.7452 28.3048 68.7859 29.112 68.7171Z" fill="#FF9A6C"/>
<path d="M33.7633 69.6189L30.497 68.1001C30.0587 67.8561 29.5732 67.7089 29.0731 67.6686C28.5383 67.7155 28.0223 67.8885 27.5673 68.1734L25.8068 69.0795C25.7119 69.1313 25.6083 69.1917 25.5781 69.291C25.5479 69.3902 25.6299 69.5628 25.7291 69.662C26.1836 70.0919 26.7783 70.3428 27.4033 70.3682C28.0284 70.3935 28.6414 70.1918 29.1292 69.8001C29.3676 70.5778 29.7399 71.3079 30.2295 71.9575C30.4798 72.2832 30.8099 72.5388 31.1878 72.6998C31.5657 72.8608 31.9786 72.9216 32.3869 72.8766" fill="#FFBF9D"/>
<path d="M32.3782 72.9198C32.351 72.9331 32.3219 72.9419 32.2919 72.9457C32.2043 72.9673 32.1146 72.9789 32.0244 72.9802C31.6816 72.9814 31.3438 72.8984 31.0406 72.7385C30.571 72.4929 30.1727 72.1303 29.8842 71.6857C29.5261 71.1147 29.2365 70.5036 29.0212 69.8649L29.1852 69.9037C28.9231 70.1238 28.62 70.2897 28.2934 70.392C27.9668 70.4942 27.6232 70.5306 27.2824 70.4992C26.9119 70.4738 26.5506 70.3725 26.2209 70.2014C26.0521 70.1121 25.8943 70.0036 25.7506 69.8778C25.6727 69.8135 25.6019 69.7412 25.5392 69.6621C25.4985 69.6128 25.4693 69.5551 25.4536 69.4932C25.4379 69.4313 25.4362 69.3666 25.4486 69.3039C25.4626 69.2525 25.4871 69.2045 25.5205 69.1629C25.5539 69.1213 25.5955 69.0871 25.6427 69.0623C25.7204 69.0148 25.7851 68.9847 25.8542 68.9458L26.2598 68.7387L27.058 68.3072C27.5539 68.0168 28.0826 67.7865 28.6329 67.6212C29.1613 67.526 29.7063 67.6095 30.1819 67.8585C30.6134 68.057 31.0449 68.2554 31.3901 68.4324L33.116 69.2953C33.3329 69.393 33.542 69.5069 33.7417 69.6362C33.5133 69.5685 33.2911 69.4819 33.0772 69.3773L31.3081 68.5963L30.0913 68.0526C29.6527 67.8278 29.1514 67.7564 28.6674 67.8498C28.1365 68.0158 27.6268 68.2432 27.1486 68.5273L26.3547 68.9588L25.9491 69.1702C25.811 69.2392 25.6643 69.3083 25.6557 69.3773C25.6471 69.4463 25.7549 69.6146 25.8887 69.7225C26.0204 69.837 26.1653 69.9355 26.3202 70.0159C26.6219 70.1722 26.9521 70.2662 27.291 70.292C27.9214 70.3534 28.5506 70.1643 29.0428 69.7656L29.155 69.6707L29.2025 69.8088C29.4036 70.4367 29.6742 71.0402 30.0093 71.6081C30.2734 72.0387 30.6414 72.3962 31.0794 72.6479C31.4775 72.8606 31.9282 72.955 32.3782 72.9198Z" fill="#FF9A6C"/>
<path d="M76.2386 26.8676C76.2688 24.4168 76.6701 21.9746 76.5579 19.5325C76.4457 17.0903 75.8201 14.5316 74.1114 12.7754C72.4027 11.0193 69.4212 10.3548 67.4364 11.7572L67.0049 13.8455C67.7902 23.295 67.6866 32.8955 68.4719 42.3449C68.5755 43.5876 69.5808 44.7138 70.1461 45.8227C70.7113 46.9316 71.8461 47.8506 73.0888 47.773C74.7155 47.6737 75.7812 46.0255 76.2861 44.4721C78.1414 38.8585 76.1652 32.7919 76.2386 26.8676Z" fill="#263238"/>
<path d="M70.3445 14.1605C70.0172 13.5379 69.5967 12.969 69.0975 12.4734C68.8457 12.227 68.5414 12.0407 68.2074 11.9287C67.8734 11.8166 67.5183 11.7815 67.1688 11.8262C67.0042 11.8467 66.8476 11.909 66.7139 12.0072C66.5802 12.1054 66.4739 12.2362 66.4051 12.3871C66.2972 12.6978 66.5302 13.1163 66.8581 13.0861L66.9272 13.1465C67.6607 13.7966 68.4072 14.4309 69.1666 15.0494C69.3478 15.2184 69.5603 15.3503 69.7922 15.4377C69.9088 15.4802 70.035 15.489 70.1564 15.463C70.2777 15.4371 70.3893 15.3775 70.4783 15.291C70.7501 14.989 70.5516 14.51 70.3445 14.1605Z" fill="#FF725E"/>
<path d="M71.7295 16.5681C69.2873 13.5823 66.008 11.8607 62.1506 11.8218C59.9932 11.783 59.0741 12.2533 57.5078 12.6589C55.9395 13.0376 54.5533 13.9535 53.59 15.2478C52.4811 16.8227 51.5491 18.5875 51.3376 20.5076C51.0612 22.4694 50.9673 24.4527 51.0572 26.4318C51.1477 28.4207 51.7869 30.3456 52.9039 31.9936L57.9264 32.8566C60.7008 32.9515 63.514 33.0421 66.2194 32.4251C68.9248 31.8081 71.5482 30.3367 72.9937 27.9679C75.0044 24.6541 74.1673 19.5497 71.7295 16.5681Z" fill="#263238"/>
<path d="M67.2634 16.5337L60.5668 13.8715L58.815 14.0743C54.8799 14.0743 52.1616 18.4322 52.1357 21.6166C52.1098 25.1633 52.2134 29.4868 52.7743 32.0973C53.9091 37.3484 58.3835 37.7842 58.3835 37.7842C58.3835 37.7842 58.2929 40.5845 58.2584 42.345L68.5147 41.6071L69.0282 18.333C69.0126 17.8666 68.8227 17.423 68.496 17.0899C68.1692 16.7568 67.7294 16.5583 67.2634 16.5337Z" fill="#FFBF9D"/>
<path d="M60.6489 30.8674C60.6074 30.599 60.4693 30.355 60.2605 30.1814C60.0706 30.0178 59.8321 29.9211 59.5818 29.9063C59.3316 29.8915 59.0834 29.9593 58.8755 30.0994C58.6597 30.2657 58.492 30.4864 58.3896 30.7389C58.2873 30.9914 58.2539 31.2666 58.293 31.5362C58.4083 31.6981 58.5569 31.8334 58.7288 31.9332C58.9007 32.0329 59.0919 32.0947 59.2897 32.1144C59.3515 32.1187 59.4135 32.1187 59.4752 32.1144C59.7953 32.1211 60.1052 32.0018 60.3382 31.7822C60.4554 31.6628 60.5441 31.5186 60.5979 31.3603C60.6517 31.2019 60.6691 31.0335 60.6489 30.8674Z" fill="#FF9A6C"/>
<path d="M53.9092 26.0997C53.9159 26.2771 53.992 26.4447 54.1212 26.5666C54.2503 26.6884 54.4221 26.7547 54.5995 26.7512C54.6864 26.7529 54.7727 26.7374 54.8535 26.7054C54.9343 26.6735 55.0079 26.6259 55.0702 26.5653C55.1324 26.5046 55.1819 26.4323 55.216 26.3523C55.25 26.2724 55.2678 26.1865 55.2683 26.0997C55.2594 25.9222 55.182 25.7552 55.0525 25.6337C54.9229 25.5122 54.7513 25.4457 54.5737 25.4481C54.487 25.4464 54.4009 25.462 54.3204 25.494C54.2398 25.5259 54.1664 25.5736 54.1046 25.6343C54.0427 25.695 53.9935 25.7674 53.96 25.8473C53.9264 25.9272 53.9092 26.013 53.9092 26.0997Z" fill="#263238"/>
<path d="M53.3354 23.3899C53.4217 23.4719 53.9179 23.0663 54.6299 23.0274C55.3418 22.9886 55.9243 23.3252 55.9934 23.2302C56.0624 23.1353 55.933 23.0318 55.6913 22.8764C55.3629 22.6747 54.98 22.5797 54.5954 22.6046C54.2154 22.6234 53.8513 22.7624 53.5555 23.0016C53.357 23.1871 53.288 23.3511 53.3354 23.3899Z" fill="#263238"/>
<path d="M58.0299 29.1242C57.6384 29.0214 57.2351 28.9706 56.8303 28.9732C56.6448 28.9732 56.4636 28.9387 56.4247 28.8093C56.4013 28.6184 56.4343 28.4249 56.5197 28.2527C56.6707 27.791 56.8303 27.3077 56.9943 26.7986C57.6502 24.7361 58.1162 23.0403 58.0299 23.0145C57.9436 22.9886 57.3481 24.6411 56.6923 26.7079L56.2608 28.1664C56.1546 28.3977 56.1347 28.6594 56.2047 28.9042C56.2345 28.9685 56.2789 29.0249 56.3343 29.0691C56.3898 29.1133 56.4547 29.144 56.524 29.1588C56.6288 29.1812 56.7362 29.1899 56.8433 29.1847C57.2398 29.2113 57.6381 29.191 58.0299 29.1242Z" fill="#263238"/>
<path d="M58.375 37.7799C60.8714 37.6811 63.2914 36.8909 65.365 35.4973C65.365 35.4973 63.6779 39.2728 58.3491 39.07L58.375 37.7799Z" fill="#FF9A6C"/>
<path d="M60.2089 29.5084C60.0924 29.5084 60.1313 30.3023 59.4841 30.9021C58.8368 31.5018 57.9868 31.463 57.9868 31.5752C57.9868 31.6873 58.1853 31.7176 58.5391 31.7089C59.0058 31.6905 59.4507 31.507 59.7947 31.1911C60.124 30.8895 60.3235 30.4719 60.3513 30.0261C60.36 29.6939 60.265 29.5041 60.2089 29.5084Z" fill="#263238"/>
<path d="M53.5812 20.8313C53.7149 20.9995 54.2672 20.8528 54.9231 20.8701C55.5789 20.8874 56.1312 21.0297 56.2693 20.8701C56.3297 20.7881 56.2477 20.6198 56.0104 20.4386C55.6895 20.2301 55.3144 20.1205 54.9317 20.1236C54.549 20.1134 54.1714 20.2137 53.8444 20.4127C53.607 20.5767 53.5251 20.745 53.5812 20.8313Z" fill="#263238"/>
<path d="M61.8871 25.9184C61.8907 26.0956 61.8252 26.2673 61.7044 26.397C61.5835 26.5266 61.4169 26.6042 61.2399 26.6131C61.1536 26.6214 61.0665 26.6124 60.9838 26.5866C60.901 26.5608 60.8242 26.5187 60.7579 26.4628C60.6916 26.407 60.6371 26.3385 60.5976 26.2613C60.5582 26.1841 60.5345 26.0998 60.528 26.0134C60.5243 25.8364 60.5891 25.6649 60.7089 25.5346C60.8287 25.4044 60.9943 25.3255 61.1709 25.3144C61.2578 25.3061 61.3454 25.3152 61.4287 25.3412C61.512 25.3673 61.5892 25.4096 61.6559 25.4659C61.7227 25.5222 61.7775 25.5912 61.8172 25.6689C61.8569 25.7466 61.8807 25.8314 61.8871 25.9184Z" fill="#263238"/>
<path d="M63.2252 23.1051C63.1432 23.1957 62.6211 22.8246 61.8876 22.8376C61.1541 22.8505 60.6277 23.2302 60.5457 23.1396C60.4637 23.049 60.5888 22.9412 60.8218 22.7642C61.1336 22.5395 61.5076 22.4173 61.8919 22.4147C62.2726 22.4063 62.646 22.5197 62.9577 22.7384C63.1864 22.9066 63.2683 23.0663 63.2252 23.1051Z" fill="#263238"/>
<path d="M62.7847 20.7665C62.6466 20.9348 62.0771 20.7665 61.3996 20.7665C60.7222 20.7665 60.144 20.9003 60.0103 20.7277C59.9499 20.6457 60.0405 20.4775 60.2864 20.2962C60.6274 20.0965 61.0176 19.9964 61.4126 20.0071C61.8049 20.0026 62.1901 20.1121 62.5215 20.3221C62.7674 20.512 62.8494 20.6846 62.7847 20.7665Z" fill="#263238"/>
<path d="M68.1265 27.2301C68.1265 26.8375 68.5105 25.8839 68.8988 25.8019C69.9301 25.5819 71.807 25.5603 71.971 28.201C72.1953 31.8125 68.5191 31.2904 68.5191 31.1868C68.5191 31.0833 68.1912 28.5936 68.1265 27.2301Z" fill="#FFBF9D"/>
<path d="M69.4209 29.8061C69.4209 29.8061 69.4856 29.8492 69.5935 29.888C69.7456 29.9499 69.916 29.9499 70.0681 29.888C70.4392 29.7241 70.724 29.0984 70.7024 28.4469C70.6918 28.137 70.6122 27.8333 70.4694 27.558C70.4289 27.4469 70.3617 27.3474 70.2736 27.2684C70.1856 27.1894 70.0794 27.1333 69.9646 27.105C69.8916 27.0906 69.8159 27.1021 69.7505 27.1375C69.6851 27.173 69.6342 27.2301 69.6064 27.2991C69.5633 27.4027 69.6064 27.4761 69.5719 27.4804C69.5374 27.4847 69.4899 27.4243 69.5115 27.2733C69.5258 27.1827 69.5717 27.1002 69.641 27.0403C69.6871 26.9993 69.7412 26.9683 69.7998 26.949C69.8584 26.9297 69.9204 26.9226 69.9818 26.9281C70.1322 26.9462 70.2752 27.0036 70.3964 27.0945C70.5176 27.1854 70.6127 27.3065 70.6722 27.4458C70.8445 27.7491 70.9408 28.0896 70.9527 28.4383C70.9742 29.1675 70.642 29.8708 70.1328 30.052C70.0377 30.0865 69.936 30.0993 69.8353 30.0896C69.7345 30.0799 69.6372 30.0479 69.5503 29.9959C69.4209 29.8967 69.4209 29.8147 69.4209 29.8061Z" fill="#FF9A6C"/>
<path d="M69.0368 25.8105L68.1264 26.7511C64.1654 22.9584 56.4246 13.4658 56.8604 14.031C58.6659 13.36 60.6111 13.1537 62.5172 13.4313C65.4642 13.9318 71.0476 15.4075 70.9613 18.8809C70.875 22.3543 69.0368 25.8105 69.0368 25.8105Z" fill="#263238"/>
<path d="M74.2838 25.0252C74.2721 24.9545 74.2533 24.8851 74.2277 24.8181C74.162 24.6217 74.0797 24.4311 73.9818 24.2486C73.6079 23.5801 73.0925 23.0014 72.4716 22.5528C71.5563 21.8954 70.5346 21.4006 69.4512 21.0901C68.2431 20.6975 66.8839 20.3911 65.5463 19.7957C64.2849 19.2701 63.0889 18.5997 61.9823 17.7979C61.0772 17.1425 60.2338 16.4059 59.4624 15.5974C58.945 15.0505 58.4595 14.4742 58.0083 13.8714L57.6459 13.3709C57.6055 13.3104 57.5592 13.2541 57.5078 13.2026C57.5381 13.269 57.5742 13.3325 57.6157 13.3925C57.689 13.5133 57.7969 13.6902 57.9479 13.9103C58.3799 14.5346 58.8542 15.1286 59.3675 15.688C61.0706 17.5397 63.1552 19.0001 65.4773 19.9683C66.7626 20.4554 68.0716 20.8774 69.3995 21.2325C70.478 21.5265 71.4992 22.0006 72.4198 22.6348C73.0341 23.0664 73.5526 23.6202 73.943 24.2615C74.1673 24.7318 74.2623 25.0252 74.2838 25.0252Z" fill="#455A64"/>
<path d="M73.2311 25.5818C73.2428 25.3117 73.1957 25.0423 73.093 24.7922C72.8205 24.1021 72.347 23.5099 71.7338 23.0922C70.8162 22.501 69.789 22.1005 68.7134 21.9142C67.4264 21.6563 66.1718 21.2569 64.9725 20.7233C63.7782 20.1784 62.6564 19.4871 61.6328 18.6652C60.8001 17.991 60.0343 17.2382 59.346 16.4171C58.8771 15.8603 58.4447 15.2737 58.0515 14.661L57.7452 14.1562C57.7135 14.0954 57.6744 14.0389 57.6287 13.9879C57.6527 14.0518 57.6816 14.1139 57.715 14.1734L57.9911 14.6999C58.3584 15.3287 58.7708 15.93 59.2251 16.4991C59.9053 17.3418 60.6701 18.1125 61.5077 18.7989C62.5373 19.6372 63.6697 20.3404 64.8776 20.8916C66.0875 21.4315 67.3559 21.8297 68.6573 22.0782C69.7135 22.2541 70.7249 22.6353 71.6346 23.2C72.2361 23.596 72.7098 24.1581 72.998 24.8181C73.099 25.065 73.177 25.3206 73.2311 25.5818Z" fill="#455A64"/>
<path d="M68.9163 31.9289C68.9163 31.903 69.2226 31.8642 69.7576 31.7218C70.5078 31.5052 71.1985 31.12 71.777 30.5956C72.6244 29.8025 73.2683 28.8167 73.6539 27.722C74.1467 26.3877 74.4122 24.9802 74.4392 23.5582C74.4556 22.8234 74.3963 22.0889 74.2623 21.3662C73.9003 19.5486 73.0466 17.8652 71.7942 16.4991C71.0579 15.7171 70.2456 15.0104 69.3693 14.3892C69.3693 14.3892 69.4427 14.415 69.5721 14.4927C69.7016 14.5704 69.8871 14.6739 70.1158 14.8379C70.7712 15.2875 71.3759 15.8069 71.9194 16.3869C72.7332 17.2464 73.3916 18.2406 73.8654 19.3253C74.14 19.9687 74.3496 20.638 74.491 21.3231C74.6298 22.0612 74.692 22.8116 74.6765 23.5625C74.6506 25.0113 74.3748 26.4447 73.861 27.7996C73.4526 28.92 72.7756 29.923 71.8892 30.7208C71.2841 31.247 70.5623 31.6212 69.7835 31.8124C69.5716 31.8605 69.3569 31.8951 69.1406 31.916C69.0663 31.9261 68.9913 31.9304 68.9163 31.9289Z" fill="#455A64"/>
<path d="M73.5114 76.3328L52.1617 79.4351C44.1405 81.7047 35.6921 82.3692 26.8596 81.5925L58.9921 96.5822L71.8934 96.7807C71.8934 96.7807 75.8199 96.7807 76.5059 93.3547C77.192 89.9288 77.9557 79.4955 77.9557 79.4955C77.9557 79.4955 75.4057 77.2863 73.5114 76.3328Z" fill="#263238"/>
<g opacity="0.3">
<path d="M73.4467 85.3205C73.7997 87.4587 73.927 89.628 73.8264 91.7928C74.4822 91.0729 74.9653 90.213 75.2389 89.2784C75.5125 88.3438 75.5696 87.3592 75.4056 86.3992C75.2201 85.3464 74.78 84.1858 75.3323 83.2667C75.7034 82.6497 76.6828 81.942 76.5404 81.2387C76.5404 81.2387 75.6775 81.2387 74.9051 81.2085C74.2795 81.1826 72.9807 81.1438 72.9807 81.1438C73.5395 82.486 73.6603 83.9704 73.3259 85.3853" fill="black"/>
</g>
<path d="M58.2931 41.4646L68.6659 40.3428L70.5644 42.0687L63.1602 46.4267L59.8939 48.1181L56.6664 47.1386L55.6438 45.2142L58.2931 41.4646Z" fill="#FFBF9D"/>
<path d="M44.3086 54.0941C44.3086 54.0941 47.562 47.8549 48.3645 46.4914C49.7366 44.1657 52.2996 42.8497 52.2996 42.8497L58.2929 41.4647C58.2929 41.4647 57.6716 44.485 61.3996 44.6749C66.1459 44.9381 69.0929 40.3903 69.0929 40.3903C69.0929 40.3903 74.5037 40.9469 75.9966 41.5725C77.4896 42.1982 81.7181 43.9716 82.3394 49.5895L83.7892 58.7671L72.3549 59.6301L72.5103 71.8496L67.6518 75.8236C67.6518 75.8236 53.702 80.626 52.8088 80.9409C52.3773 81.092 52.4895 75.1634 51.4928 70.0805L49.6115 65.5111C48.85 63.686 48.3993 61.7463 48.2782 59.7724C48.2049 58.478 48.2394 57.4856 48.2394 57.4856C48.2394 57.4856 45.3053 56.4802 44.3086 54.0941Z" fill="#455A64"/>
<path d="M53.3182 76.1516L72.489 70.3999L72.3552 59.6388L82.1153 58.8966C82.1153 58.8966 81.3387 64.4714 81.2222 67.3278C81.0582 71.4398 79.0648 77.1871 77.7703 78.4039C76.4759 79.6207 52.822 80.9496 52.822 80.9496L53.3182 76.1516Z" fill="#FFBF9D"/>
<path d="M42.445 79.5344C42.5374 79.6926 42.6843 79.8118 42.8582 79.8698C43.032 79.9277 43.221 79.9205 43.3899 79.8494C43.8214 79.6768 43.7049 78.8052 43.7049 78.8052L45.7458 78.3047C45.7458 78.3047 48.5634 79.8321 49.6292 80.8936C50.6949 81.955 53.0379 80.8461 53.0379 80.8461L53.5254 76.3716L49.4566 73.2261C49.4566 73.2261 49.7068 73.416 49.3918 72.7946C49.0769 72.1733 47.9032 72.5099 47.9032 72.5099C47.6961 72.2035 46.9065 72.1517 46.9065 72.1517L43.597 72.7946C43.2612 72.86 42.9443 72.9997 42.6695 73.2035C42.3947 73.4074 42.1691 73.6701 42.0092 73.9726L40.7708 76.3155C40.7708 76.3155 40.1495 77.981 40.3005 78.3478C40.3656 78.4996 40.4842 78.6222 40.6338 78.6922C40.7834 78.7622 40.9535 78.7748 41.1117 78.7275C41.1117 78.7275 41.3576 79.7717 41.6381 79.7847C41.9215 79.7496 42.1954 79.6602 42.445 79.5214V79.5344Z" fill="#FFBF9D"/>
<path d="M49.301 75.8236C49.301 75.8582 48.8695 75.8495 48.1446 75.9358C47.2215 76.0535 46.3187 76.2959 45.4608 76.6564C44.9898 76.8577 44.5353 77.0957 44.1016 77.3683C43.7176 77.6229 43.312 77.843 43.2042 78.1493C43.1809 78.2152 43.175 78.2859 43.1871 78.3547C43.1992 78.4235 43.2288 78.488 43.2732 78.542C43.3414 78.6315 43.4344 78.6991 43.5407 78.7361C43.7219 78.7922 43.8298 78.7361 43.8384 78.7361C43.8471 78.7361 43.7392 78.8354 43.5191 78.7965C43.3889 78.7674 43.2711 78.698 43.1826 78.5981C43.1191 78.5298 43.0745 78.4461 43.0533 78.3552C43.0321 78.2644 43.035 78.1696 43.0618 78.0803C43.1354 77.8792 43.2677 77.7048 43.4415 77.5798C43.6141 77.446 43.7953 77.3122 43.9981 77.1785C45.2342 76.3689 46.6543 75.8836 48.1274 75.7675C48.519 75.7227 48.9154 75.7417 49.301 75.8236Z" fill="#FF9A6C"/>
<path d="M49.7024 77.9335C49.7024 77.9939 48.3389 78.0457 46.682 78.2701C45.0251 78.4945 43.6961 78.8051 43.6616 78.7447C43.9354 78.613 44.2257 78.5187 44.5246 78.4643C45.2238 78.2884 45.9326 78.153 46.6475 78.0587C47.3628 77.9616 48.0831 77.9054 48.8049 77.8904C49.1046 77.8637 49.4066 77.8783 49.7024 77.9335Z" fill="#FF9A6C"/>
<path d="M42.4578 79.4481C42.4228 79.3343 42.3997 79.2172 42.3888 79.0986C42.3443 78.7738 42.3184 78.4468 42.3111 78.1191C42.3074 77.8911 42.3218 77.6631 42.3543 77.4374C42.3942 77.1716 42.4866 76.9164 42.6261 76.6866C42.9131 76.1547 43.3033 75.6853 43.7739 75.3059C44.2393 74.9253 44.7565 74.613 45.3099 74.3782C45.7687 74.2079 46.2471 74.0962 46.7338 74.0459C47.1653 73.9985 47.476 73.9855 47.709 73.9726C47.8277 73.9551 47.9484 73.9551 48.0671 73.9726C47.6403 74.0702 47.208 74.1422 46.7727 74.1883C46.3031 74.2572 45.8429 74.3788 45.4005 74.5508C44.8697 74.7877 44.3733 75.0954 43.9249 75.4655C43.4777 75.8252 43.1003 76.2639 42.8117 76.7599C42.5813 77.1689 42.4665 77.6327 42.4794 78.1019C42.4449 78.9346 42.5053 79.4481 42.4578 79.4481Z" fill="#FF9A6C"/>
<path d="M46.8115 73.0232C46.8115 73.0578 46.3153 73.1095 45.517 73.2606C44.7188 73.4116 43.5322 73.5885 42.9281 74.7017C42.3116 75.546 41.8136 76.4708 41.4482 77.4503C41.3343 77.8665 41.2606 78.2928 41.2281 78.7231C41.1878 78.6098 41.1716 78.4893 41.1806 78.3693C41.1728 78.0444 41.2135 77.72 41.3015 77.4071C41.6298 76.3933 42.1194 75.439 42.7512 74.5809C42.9191 74.3209 43.1208 74.0844 43.351 73.8776C43.573 73.6871 43.8293 73.5407 44.1061 73.4461C44.5598 73.2888 45.0281 73.1775 45.5041 73.1139C45.9344 73.0291 46.3736 72.9987 46.8115 73.0232Z" fill="#FF9A6C"/>
<path d="M48.8265 80.2549C48.7518 80.2157 48.681 80.1695 48.6151 80.1169L48.0239 79.7156C47.279 79.2249 46.5069 78.7769 45.7112 78.3737H45.7587L43.7221 78.8871L43.7868 78.7922C43.8062 78.9614 43.8062 79.1322 43.7868 79.3014C43.774 79.4879 43.7065 79.6665 43.5926 79.8148C43.5219 79.8894 43.43 79.9406 43.3294 79.9615C43.2367 79.9939 43.1383 80.0072 43.0403 80.0004C42.8377 79.9858 42.6467 79.9003 42.501 79.7587C42.4656 79.7219 42.4325 79.683 42.4017 79.6422V79.612L42.5225 79.6466L42.4578 79.6768C42.374 79.7208 42.2875 79.7597 42.1989 79.7933C42.1087 79.8286 42.0165 79.8589 41.9228 79.8839C41.8734 79.8984 41.8229 79.9085 41.7718 79.9141C41.7063 79.9248 41.6391 79.9173 41.5776 79.8925C41.4791 79.8301 41.401 79.74 41.3532 79.6336C41.3054 79.5445 41.2636 79.4522 41.2281 79.3575C41.1556 79.1706 41.0964 78.9788 41.0512 78.7836L41.1763 78.857C41.0388 78.8991 40.8923 78.9025 40.753 78.8667C40.6136 78.831 40.4869 78.7574 40.3867 78.6542C40.2825 78.5439 40.2213 78.4 40.2141 78.2486C40.2138 78.1124 40.2268 77.9766 40.253 77.843C40.3684 77.3235 40.5212 76.813 40.7103 76.3155L41.3705 75.0642L41.802 74.2746C41.9299 74.0016 42.0861 73.7427 42.268 73.5023C42.4657 73.271 42.7078 73.0818 42.9799 72.9456C43.2453 72.8237 43.5275 72.7423 43.817 72.704L46.9323 72.1042H46.9582C47.1497 72.1187 47.3392 72.1535 47.5234 72.2078C47.719 72.251 47.8958 72.3553 48.0283 72.5055L47.9074 72.4796C48.0718 72.3887 48.2558 72.3388 48.4436 72.3343C48.6314 72.3298 48.8176 72.3708 48.9861 72.4538C49.2776 72.6379 49.4899 72.924 49.5816 73.2563L49.5514 73.2175L52.356 75.3749L53.1111 75.9703C53.2021 76.0363 53.2872 76.1099 53.3657 76.1904C53.2666 76.1392 53.1726 76.0785 53.0852 76.0092L52.3042 75.4439L49.4565 73.3469H49.4349V73.3167C49.3546 73.0277 49.1681 72.7796 48.9128 72.622C48.7705 72.5537 48.6138 72.5207 48.456 72.526C48.2983 72.5312 48.1441 72.5746 48.0067 72.6522L47.9333 72.6868L47.8859 72.6264C47.7762 72.5127 47.6349 72.4345 47.4803 72.402C47.3082 72.3544 47.1319 72.324 46.9539 72.3114H46.9798L43.8645 72.9241C43.5925 72.9594 43.3276 73.0365 43.0792 73.1528C42.8342 73.2741 42.6169 73.4444 42.4406 73.6533C42.2706 73.883 42.126 74.1304 42.0091 74.3911L41.5776 75.1807C41.3489 75.6122 41.1461 76.0437 40.9174 76.432C40.7395 76.9192 40.5953 77.418 40.486 77.9249C40.4611 78.0427 40.4481 78.1627 40.4471 78.2831C40.4529 78.3867 40.4958 78.4847 40.5679 78.5592C40.6421 78.6335 40.735 78.6864 40.8368 78.7122C40.9386 78.738 41.0455 78.7359 41.1461 78.7059L41.2497 78.68V78.7793C41.2971 78.9648 41.3532 79.1547 41.418 79.3316C41.4653 79.4935 41.5512 79.6416 41.6682 79.7631C41.6964 79.7714 41.7264 79.7714 41.7545 79.7631L41.8796 79.7372C41.9668 79.7177 42.0521 79.6903 42.1342 79.6552C42.2162 79.625 42.2982 79.5861 42.3802 79.5473L42.4406 79.5214L42.5657 79.5559V79.5775C42.5892 79.611 42.6152 79.6428 42.6434 79.6724C42.7238 79.7582 42.827 79.8191 42.9409 79.8482C43.0548 79.8772 43.1746 79.8732 43.2863 79.8364C43.3552 79.8246 43.4186 79.7914 43.4675 79.7415C43.6196 79.4812 43.676 79.176 43.6271 78.8785V78.8009H43.6962L45.7414 78.3176H45.7673C46.5625 78.7316 47.328 79.2001 48.0585 79.7199C48.313 79.9055 48.4899 80.0522 48.6323 80.1514C48.6994 80.1812 48.7643 80.2158 48.8265 80.2549Z" fill="#FF9A6C"/>
<path d="M38.8592 83.025C38.8592 83.025 25.3322 78.7749 21.0864 77.4157C13.7512 75.0426 8.97903 77.4416 7.46884 80.0564C5.50991 83.4522 10.2088 90.0754 12.021 91.5986C17.3843 96.1075 26.5792 96.7159 26.5792 96.7159L59.6393 96.6555L50.0043 83.5471L38.8592 83.025Z" fill="#263238"/>
<path d="M40.8871 89.1607C35.3781 89.8019 29.7963 89.042 24.6591 86.9515C23.7826 86.5553 22.8802 86.2194 21.958 85.9461C21.0464 85.7163 20.1013 85.6491 19.1663 85.7477C18.7952 85.7571 18.4299 85.841 18.0919 85.9945C17.7539 86.1479 17.4502 86.3677 17.1988 86.6408C16.5386 87.5038 16.8751 88.7465 17.2419 89.7734C17.6734 90.9815 18.1049 92.2156 18.9678 93.1821C19.9473 94.3083 21.3712 94.9555 22.7994 95.4042C25.5911 96.2672 28.5381 96.539 31.4636 96.6512L41.5085 96.1032L40.8871 89.1607Z" fill="#E0E0E0"/>
<path d="M21.4878 85.9504C21.5538 86.0314 21.6049 86.1234 21.6388 86.2223C21.7555 86.4798 21.8452 86.7488 21.9063 87.0248C22.1232 87.943 22.0851 88.903 21.7962 89.8011C21.5072 90.6991 20.9783 91.5012 20.2667 92.1206C20.0549 92.3062 19.8267 92.4723 19.585 92.6168C19.4081 92.7161 19.3088 92.7592 19.3002 92.7463C19.2916 92.7333 19.6626 92.496 20.1632 92.0084C20.8198 91.3805 21.3094 90.5986 21.5874 89.7336C21.8655 88.8687 21.9232 87.948 21.7553 87.055C21.6345 86.3647 21.4533 85.9634 21.4878 85.9504Z" fill="#263238"/>
<path d="M73.3866 82.1966C72.6013 79.9702 72.4718 76.6996 67.6263 75.129C62.7808 73.5584 59.1218 76.5701 56.6321 77.6143C54.1425 78.6585 40.5379 86.1231 40.5379 86.1231C40.5379 86.1231 37.9748 90.6925 38.7041 92.7118C39.4333 94.7312 42.747 96.7246 42.747 96.7246H57.9654C61.8919 96.7246 69.1839 96.5909 69.1839 96.5909C70.1603 94.9905 71.035 93.3303 71.803 91.6202L71.9325 90.9644C71.9454 90.4423 74.1676 84.4231 73.3866 82.1966Z" fill="#263238"/>
<path d="M64.9554 93.756C64.9356 93.8333 64.8971 93.9044 64.8432 93.9631C64.6956 94.1342 64.5275 94.2864 64.3427 94.4162C63.6632 94.8847 62.9408 95.2878 62.1853 95.62C61.6692 95.8606 61.1389 96.0696 60.5974 96.2457C59.9706 96.4429 59.3283 96.5873 58.6773 96.6772C57.1921 96.825 55.6993 96.8826 54.2072 96.8497C51.0444 96.9015 48.1664 97.0223 46.0953 96.9965C45.0554 96.9965 44.214 96.949 43.6358 96.8886C43.4128 96.869 43.191 96.8373 42.9714 96.7937C42.8936 96.7843 42.8169 96.767 42.7427 96.7419C42.7427 96.7203 43.062 96.7764 43.6402 96.8066C44.2183 96.8368 45.0597 96.8584 46.0953 96.8497C48.1707 96.8497 51.0358 96.6901 54.2072 96.6383C55.6918 96.6704 57.177 96.6186 58.6557 96.483C59.2951 96.4046 59.9271 96.2747 60.5456 96.0947C61.0837 95.9286 61.6111 95.7297 62.1248 95.4992C62.8752 95.1836 63.597 94.8039 64.2823 94.3644C64.4686 94.2397 64.6408 94.095 64.7957 93.9329C64.9165 93.8294 64.9424 93.7517 64.9554 93.756Z" fill="#263238"/>
<path d="M42.7468 96.7246L42.544 96.6168C42.4146 96.5434 42.2247 96.4226 41.9788 96.2629C41.2632 95.7959 40.5929 95.2628 39.9767 94.6708C39.5304 94.2428 39.1494 93.7514 38.8462 93.2124C38.5364 92.5374 38.4575 91.7792 38.6219 91.055C38.9919 89.3203 39.6125 87.6487 40.4643 86.0929V86.0713C42.9583 84.6992 45.819 83.1416 48.9429 81.4631C50.5049 80.626 52.1316 79.7588 53.823 78.8742C54.6859 78.4427 55.5489 78.0112 56.4119 77.5798C57.2748 77.1483 58.1594 76.7168 59.0525 76.2508C60.2865 75.5747 61.6099 75.0765 62.9833 74.7708C63.658 74.6362 64.345 74.574 65.0329 74.5853C65.7059 74.6056 66.3745 74.7011 67.0263 74.8701C68.29 75.1813 69.4765 75.7481 70.5127 76.5356C70.9945 76.9347 71.4211 77.3961 71.7813 77.9077C72.1124 78.412 72.386 78.9518 72.5968 79.5171C72.8125 80.0694 72.9635 80.626 73.1189 81.1697C73.2969 81.6979 73.441 82.2369 73.5503 82.7834C73.6182 83.8275 73.5309 84.8759 73.2914 85.8944C73.0973 86.8653 72.86 87.7714 72.614 88.6128C72.4932 89.0442 72.3724 89.4455 72.2602 89.8382C72.148 90.2308 72.0186 90.6192 71.9582 90.9643C71.9064 91.2103 71.8676 91.3958 71.8244 91.6159C71.4088 92.9492 70.8214 94.2227 70.0769 95.4043C69.8132 95.8268 69.5019 96.2176 69.1492 96.5693L69.2053 96.4916C69.2528 96.4355 69.3132 96.3665 69.3865 96.2716C69.6152 95.984 69.8284 95.6844 70.0251 95.3741C70.7439 94.1854 71.3107 92.9112 71.7122 91.5814C71.9582 91.3743 71.9107 91.1715 71.8374 90.9255C71.9128 90.5319 72.0107 90.1429 72.1308 89.7605L72.4803 88.5394C72.7133 87.6765 72.9463 86.7876 73.1361 85.8254C73.3659 84.823 73.4474 83.7923 73.3777 82.7662C73.2643 82.2305 73.1202 81.7018 72.9463 81.1826C72.7866 80.639 72.6313 80.0867 72.4198 79.5473C72.2139 78.9953 71.9461 78.4684 71.6216 77.9767C71.2715 77.4818 70.8565 77.0363 70.3876 76.6521C68.8358 75.4891 66.9664 74.8268 65.0286 74.7536C64.3564 74.7425 63.6851 74.8047 63.0265 74.9391C61.6693 75.2402 60.3617 75.7327 59.1431 76.4018C58.2802 76.8333 57.4172 77.3511 56.4895 77.7351C55.5618 78.1191 54.7636 78.5765 53.9006 79.0296C52.2135 79.8925 50.5825 80.7555 49.0206 81.6184L40.529 86.1965L40.5592 86.162C39.7099 87.7 39.0865 89.3522 38.7082 91.0679C38.5379 91.7676 38.6063 92.5041 38.9023 93.1606C39.1928 93.6948 39.5623 94.1821 39.9983 94.6061C40.6034 95.2026 41.2604 95.7441 41.9615 96.2241L42.5138 96.5952C42.6692 96.6772 42.7468 96.7246 42.7468 96.7246Z" fill="#263238"/>
<path d="M67.5138 91.0764C67.5138 91.0764 72.0487 91.6201 71.6474 93.8379C71.2461 96.0557 69.7618 96.8022 69.7618 96.8022L57.4387 96.8281C57.4387 96.8281 64.7955 96.3189 67.5138 91.0764Z" fill="#E0E0E0"/>
<path d="M67.954 90.0021C67.953 90.2181 67.9059 90.4314 67.8159 90.6277C67.649 91.1238 67.4011 91.5889 67.0824 92.0042C66.6526 92.6095 66.0515 93.0723 65.3564 93.3331C65.9287 92.9038 66.4537 92.4149 66.9227 91.8747C67.3183 91.2805 67.6633 90.6541 67.954 90.0021Z" fill="#263238"/>
<path d="M66.4006 90.8693C66.4079 91.4258 66.2583 91.9731 65.9691 92.4486C65.7477 92.9527 65.4089 93.3965 64.981 93.743C64.9336 93.7042 65.378 93.1303 65.7793 92.3407C66.1806 91.5511 66.3229 90.8607 66.4006 90.8693Z" fill="#263238"/>
<path d="M72.1654 96.1852C72.1308 96.1852 72.4243 95.607 72.7781 94.6534C73.707 92.1632 74.0136 89.4837 73.6712 86.8479C73.5375 85.8426 73.3821 85.2255 73.4167 85.2169C73.4849 85.3534 73.5343 85.4986 73.5634 85.6484C73.67 86.0389 73.755 86.4351 73.8179 86.835C74.2497 89.4938 73.9392 92.2202 72.9205 94.7138C72.7666 95.0814 72.5923 95.4401 72.3984 95.7882C72.3367 95.9293 72.2585 96.0626 72.1654 96.1852Z" fill="#455A64"/>
<g opacity="0.3">
<path d="M69.6022 89.8812C69.5677 89.5835 69.4512 89.2297 69.1707 89.1693C68.8083 89.0959 68.5624 89.5102 68.42 89.8467C66.8321 93.4582 61.7018 96.2758 57.771 96.6512C59.6774 96.647 61.5805 96.4912 63.4622 96.1852C65.067 95.9448 66.5714 95.2569 67.803 94.2004C68.4153 93.6677 68.8963 93.0007 69.2084 92.2515C69.5205 91.5023 69.6553 90.6911 69.6022 89.8812Z" fill="black"/>
</g>
<path d="M39.5799 84.9667C38.8284 84.7557 38.0977 84.477 37.3966 84.1339C36.6678 83.8578 35.9659 83.5155 35.2996 83.1113C36.05 83.3235 36.7806 83.6007 37.4829 83.9398C38.2118 84.2172 38.9138 84.561 39.5799 84.9667Z" fill="#263238"/>
<g opacity="0.2">
<path d="M43.9636 83.0595C38.0955 81.9376 32.2057 80.9409 26.2944 80.0693L21.8933 81.4587C23.1273 83.7542 25.5652 85.2169 28.098 85.821C30.6308 86.4251 33.2758 86.2827 35.8647 86.0454C38.7211 85.7822 41.6552 85.3809 44.1405 83.9484C44.3304 83.8405 44.5461 83.6765 44.5202 83.4565C44.4943 83.2364 44.2182 83.107 43.9636 83.0595Z" fill="black"/>
</g>
<path d="M15.08 65.5845L22.4756 81.9376C22.6252 82.271 22.8674 82.5543 23.1734 82.7539C23.4794 82.9536 23.8362 83.0611 24.2016 83.0638L45.7757 83.3443L48.494 81.8815L44.2353 81.5709L37.6077 65.6665C37.5046 65.419 37.331 65.2074 37.1085 65.0578C36.886 64.9082 36.6245 64.8273 36.3564 64.8251L15.6927 64.6697C15.5825 64.6657 15.4731 64.6899 15.3749 64.7401C15.2766 64.7903 15.1928 64.8647 15.1315 64.9564C15.0701 65.048 15.0331 65.1538 15.0241 65.2637C15.0151 65.3737 15.0344 65.4841 15.08 65.5845Z" fill="#E0E0E0"/>
<path d="M15.0801 65.5845C15.0448 65.5236 15.0228 65.456 15.0154 65.386C15.0017 65.2824 15.013 65.1771 15.0483 65.0788C15.0836 64.9805 15.1418 64.892 15.2182 64.8208C15.3361 64.7113 15.489 64.6471 15.6497 64.6395H17.5439L26.1951 64.6697L32.2099 64.6999L35.5712 64.7215H36.4342C36.7537 64.7445 37.0569 64.8719 37.2971 65.084C37.5286 65.3011 37.6996 65.5747 37.7933 65.8779L38.1471 66.7408C40.0327 71.2585 42.1168 76.255 44.326 81.5364L44.2224 81.463L48.3344 81.765H48.4811L48.9126 81.7953L48.5459 81.9937L45.8275 83.4565H45.7973H45.7671L29.4139 83.2321L25.7636 83.1803C25.1682 83.1803 24.5986 83.1803 24.0075 83.1458C23.7122 83.1109 23.4282 83.0117 23.1755 82.8552C22.9228 82.6986 22.7074 82.4885 22.5448 82.2397C21.5825 80.216 20.78 78.3563 19.999 76.6304L16.3832 68.5444C15.9517 67.5995 15.641 66.8617 15.4167 66.3482C15.3088 66.1066 15.2311 65.9167 15.1707 65.7786C15.1103 65.6406 15.0931 65.5802 15.0931 65.5802C15.1299 65.6414 15.163 65.7048 15.1923 65.77L15.4598 66.3309C15.6928 66.8358 16.0294 67.5693 16.4652 68.4884L20.15 76.5484C20.931 78.2442 21.7681 80.1513 22.7087 82.1189C22.8551 82.3433 23.0495 82.5324 23.2778 82.6727C23.5061 82.813 23.7627 82.9009 24.0291 82.9301C24.5813 82.9559 25.1811 82.9516 25.755 82.9602L29.4053 83.0034L45.7585 83.2019H45.6981L48.4164 81.7348L48.4682 81.9635H48.3215L44.2095 81.6658H44.1361L44.1059 81.6011C41.9097 76.3111 39.8299 71.3145 37.9487 66.7926L37.5992 65.9512C37.5222 65.6768 37.3732 65.428 37.1677 65.2307C36.9625 65.0455 36.7012 64.9346 36.4255 64.9157H35.5626L32.2013 64.8855L26.1908 64.8251L17.5309 64.7215H16.1761H15.641C15.5556 64.7247 15.4716 64.7452 15.3944 64.7819C15.3171 64.8185 15.2481 64.8705 15.1916 64.9347C15.1351 64.9989 15.0922 65.074 15.0656 65.1552C15.039 65.2365 15.0293 65.3224 15.037 65.4076C15.0481 65.4673 15.0625 65.5263 15.0801 65.5845Z" fill="#263238"/>
<path d="M43.5837 83.3142C43.5435 83.2579 43.5102 83.1971 43.4845 83.1329L43.2386 82.6065C43.0228 82.1146 42.7294 81.4502 42.3756 80.6476C41.655 78.9864 40.6756 76.6909 39.6227 74.1365C38.5699 71.5822 37.6379 69.2651 36.995 67.578C36.6714 66.715 36.4168 66.0462 36.2529 65.5673C36.1752 65.3472 36.1148 65.166 36.063 65.015C36.0389 64.9508 36.0215 64.8843 36.0112 64.8165C36.0507 64.8725 36.0826 64.9334 36.1062 64.9978L36.3305 65.5371C36.5333 66.0376 36.8052 66.7064 37.1331 67.5219C37.8321 69.222 38.777 71.5174 39.8169 74.0589C40.8568 76.6003 41.8147 78.8872 42.5137 80.5872L43.3205 82.572C43.4025 82.7921 43.4716 82.969 43.5276 83.1157C43.5576 83.1781 43.5766 83.2453 43.5837 83.3142Z" fill="#263238"/>
<path d="M30.2081 73.5109C30.2089 73.7212 30.1473 73.927 30.031 74.1022C29.9147 74.2774 29.749 74.4141 29.5548 74.495C29.3607 74.5759 29.1469 74.5972 28.9406 74.5564C28.7343 74.5156 28.5448 74.4144 28.3961 74.2657C28.2474 74.117 28.1462 73.9275 28.1054 73.7212C28.0646 73.5149 28.086 73.3011 28.1668 73.107C28.2477 72.9129 28.3844 72.7471 28.5596 72.6308C28.7348 72.5145 28.9407 72.4529 29.151 72.4537C29.4313 72.4537 29.7002 72.5651 29.8985 72.7634C30.0967 72.9616 30.2081 73.2305 30.2081 73.5109Z" fill="white"/>
<path d="M51.1996 47.2034C51.2341 47.2034 50.9235 47.8031 50.4877 48.7697C49.347 51.2926 48.6018 53.9763 48.2785 56.7262C48.149 57.7833 48.1145 58.4521 48.0757 58.4521C48.0526 58.2976 48.0526 58.1406 48.0757 57.9861C48.0757 57.6884 48.0757 57.2569 48.1361 56.7219C48.38 53.9373 49.1378 51.222 50.3712 48.7136C50.6085 48.2346 50.8026 47.8506 50.9709 47.6003C51.0309 47.4593 51.1076 47.326 51.1996 47.2034Z" fill="#263238"/>
<path d="M83.7893 58.7671C83.7123 58.7906 83.6324 58.8037 83.5519 58.8059L82.8659 58.8706L80.3029 59.0864L71.5395 59.7465H71.4273V59.6343C71.3539 58.4693 71.2763 57.2396 71.1986 55.9797C71.0735 53.7791 70.9656 51.6649 70.9311 49.7707C70.8195 48.0643 71.2079 46.3624 72.0486 44.8733C72.6258 43.8691 73.4775 43.0503 74.5038 42.5131C74.7808 42.3743 75.0696 42.2602 75.3667 42.1723C75.47 42.14 75.5752 42.114 75.6817 42.0946C75.6817 42.1291 75.2502 42.2197 74.5383 42.5908C73.5488 43.1466 72.732 43.9648 72.1781 44.9553C71.3785 46.4295 71.0205 48.1027 71.1468 49.775C71.19 51.6778 71.3022 53.7748 71.4273 55.9754C71.505 57.2353 71.5783 58.465 71.6517 59.6257L71.5309 59.5222L80.3029 58.944L82.8918 58.793L83.5778 58.7671H83.7893Z" fill="#263238"/>
<path d="M62.2887 66.2403C62.1557 66.2145 62.0276 66.1679 61.909 66.1023C61.7606 66.04 61.6164 65.9679 61.4775 65.8865C61.2914 65.7864 61.1113 65.6754 60.9382 65.5543C60.4791 65.2446 60.0552 64.8858 59.6739 64.4842C59.2126 63.9865 58.8075 63.4396 58.4658 62.8532C58.1362 62.2602 57.8742 61.6321 57.6848 60.9806C57.5345 60.4484 57.442 59.9016 57.4087 59.3496C57.396 59.1383 57.396 58.9265 57.4087 58.7153C57.4093 58.5551 57.4208 58.395 57.4432 58.2364C57.4471 58.0993 57.4734 57.9637 57.5208 57.8351C57.564 57.8351 57.4906 58.4176 57.5813 59.3366C57.6355 59.8733 57.741 60.4036 57.8962 60.9202C58.0946 61.5519 58.3563 62.1619 58.6772 62.741C59.0076 63.3121 59.3966 63.8471 59.8379 64.3375C60.2049 64.7349 60.6079 65.0974 61.0417 65.4205C61.7753 65.9685 62.3103 66.2015 62.2887 66.2403Z" fill="#263238"/>
</svg>
